├Ü┬⌐├ÿ┬│├¢┼Æ ├ÿ┬º├ÿ┬▓ ├Ü┬»├ÿ┬▒├ÿ┬¿├ÖΓÇí ├ÖΓÇí├ÿ┬º├¢┼Æ ├ÿ┬º├¢┼Æ├ÿ┬▒├ÿ┬º├ÖΓÇá├¢┼Æ ├ÿ┬«├ÿ┬¿├ÿ┬▒ ├ÖΓÇá├ÿ┬»├ÿ┬º├ÿ┬▒├ÿ┬»
├Ö┬ü├¢┼Æ├ÖΓÇ₧├ÖΓÇª├¢┼Æ ├ÿ┬¼├ÿ┬░├ÿ┬º├ÿ┬¿ ├ÿ┬»├ÿ┬▒ ├ÿ┬¿├ÿ┬º├ÿ┬▒├ÖΓÇí ├Ü┬»├ÿ┬▒├Ö╦å├ÖΓÇí ├ÖΓÇí├ÿ┬º├¢┼Æ ├ÖΓÇª├Ö╦å├ÿ┬▓├¢┼Æ├Ü┬⌐ ├ÿ┬▓├¢┼Æ├ÿ┬▒ ├ÿ┬▓├ÖΓÇª├¢┼Æ├ÖΓÇá├¢┼Æ ├ÿ┬¬├ÖΓÇí├ÿ┬▒├ÿ┬º├ÖΓÇá 


Nobody knows about Persian cats [Kasi az gorbehaye irani khabar nadareh] 2009 XVID DVDRIP [SHAFAYA] Farsi 
http://www.imdb.com/title/tt1426378/
http://www.sibesorkh.net/index.php?newsid=827
http://www.aksmod.com/?p=2233


E:Nobody knows about Persian cats [Kasi az gorbehaye irani khabar nadareh] 2009 XVID DVDRIP [SHAFAYA] FarsiNobody knows about Persian cats [2009].avi
   General
      Complete name : E:Nobody knows about Persian cats [Kasi az gorbehaye irani khabar nadareh] 2009 XVID DVDRIP [SHAFAYA] FarsiNobody knows about Persian cats [2009].avi
      Format : AVI
      Format/Info : Audio Video Interleave
      File size : 684 MiB
      Duration : 1h 42mn
      Overall bit rate : 931 Kbps
      Writing library : TMPGEnc 4.0 XPress Version. 4.2.3.193
   Video #0
      ID : 0
      Format : MPEG-4 Visual
      Format profile : AdvancedSimple@L5
      Format settings, BVOP : Yes
      Format settings, QPel : No
      Format settings, GMC : No warppoints
      Format settings, Matrix : Default (H.263)
      Muxing mode : Packed bitstream
      Codec ID : XVID
      Codec ID/Hint : XviD
      Duration : 1h 42mn
      Bit rate : 796 Kbps
      Width : 720 pixels
      Height : 404 pixels
      Display aspect ratio : 16:9
      Frame rate : 25.000 fps
      Resolution : 24 bits
      Colorimetry : 4:2:0
      Scan type : Progressive
      Bits/(Pixel*Frame) : 0.109
      Stream size : 585 MiB (85%)
      Writing library : XviD 1.2.1 (UTC 2008-12-04)
   Audio #1
      ID : 1
      Format : AC-3
      Format/Info : Audio Coding 3
      Codec ID : 2000
      Duration : 1h 42mn
      Bit rate mode : Constant
      Bit rate : 128 Kbps
      Channel(s) : 2 channels
      Channel positions : L R
      Sampling rate : 44.1 KHz
      Stream size : 93.8 MiB (14%)
      Alignment : Aligned on interleaves
      Interleave, duration : 241 ms (6.01 video frames)
      Interleave, preload duration : 208 ms